<?xml version="1.0" encoding="iso-8859-1"?>
<!-- Generator: Adobe Illustrator 19.0.0, SVG Export Plug-In . SVG Version: 6.00 Build 0)  -->
<svg version="1.1" id="Layer_1" xmlns="http://www.w3.org/2000/svg" xmlns:xlink="http://www.w3.org/1999/xlink" x="0px" y="0px"
	 viewBox="0 0 486.4 486.4" style="enable-background:new 0 0 486.4 486.4;" xml:space="preserve">
<g>
	<g>
		<path d="M243.2,371.955c-18.888,0-37.333-2.83-54.823-8.412c-4.999-1.595-7.757-6.939-6.162-11.938s6.94-7.761,11.939-6.162
			c15.62,4.985,32.122,7.512,49.047,7.512c5.246,0,9.5,4.254,9.5,9.5S248.446,371.955,243.2,371.955z"/>
	</g>
	<g>
		<path d="M258.598,134.117c-0.278,0-0.559-0.012-0.841-0.037c-7.18-0.63-14.541-0.794-21.84-0.477
			c-5.265,0.227-9.675-3.838-9.903-9.08c-0.227-5.242,3.838-9.675,9.08-9.902c8.127-0.352,16.323-0.172,24.323,0.531
			c5.227,0.458,9.092,5.067,8.634,10.294C267.617,130.39,263.469,134.116,258.598,134.117z"/>
	</g>
	<g>
		<path d="M125.836,36.314c-1.31,0-2.641-0.273-3.912-0.848c-4.78-2.163-6.901-7.793-4.737-12.573C119.75,17.232,127.55,0,142.218,0
			c5.247,0,9.5,4.254,9.5,9.5c0,5.172-4.134,9.378-9.277,9.497c-0.513,0.265-3.634,2.209-7.945,11.732
			C132.908,34.238,129.453,36.314,125.836,36.314z"/>
	</g>
	<circle style="fill:#D71920;" cx="100.864" cy="243.2" r="44.24"/>
	<circle style="fill:#3B4D81;" cx="385.536" cy="243.2" r="44.24"/>
	<path d="M439.276,243.2c0-26.101-18.708-47.906-43.416-52.735c-1.809-42.883-5.819-82.301-11.735-114.247
		c-4.107-22.177-8.95-39.727-14.396-52.164C367.125,18.106,359.197,0,344.181,0c-5.246,0-9.5,4.254-9.5,9.5
		c0,5.171,4.131,9.377,9.273,9.497c0.997,0.546,12.334,8.056,22.377,65.624c2.807,16.09,5.141,34.048,6.964,53.329
		c-5.845-11.837-12.714-22.954-20.558-33.152C323.65,66.987,284.749,46.163,243.2,46.163s-80.45,20.824-109.537,58.636
		c-7.837,10.189-14.701,21.294-20.543,33.12c2.481-26.259,5.893-49.987,10.118-69.685c1.1-5.129-2.167-10.18-7.297-11.28
		c-5.13-1.105-10.18,2.166-11.281,7.297c-7.148,33.327-12.041,77.651-14.109,126.213c-24.714,4.825-43.427,26.632-43.427,52.736
		c0,26.1,18.707,47.905,43.415,52.734c1.809,42.883,5.819,82.301,11.735,114.247c4.107,22.177,8.95,39.727,14.395,52.164
		c2.605,5.95,10.532,24.055,25.548,24.055c5.247,0,9.5-4.254,9.5-9.5c0-5.171-4.131-9.377-9.273-9.497
		c-0.996-0.546-12.334-8.057-22.376-65.624c-2.807-16.09-5.141-34.048-6.964-53.328c5.845,11.837,12.714,22.953,20.558,33.151
		c29.086,37.812,67.987,58.636,109.537,58.636s80.45-20.824,109.537-58.636c7.844-10.198,14.713-21.314,20.558-33.152
		c-1.823,19.281-4.157,37.239-6.964,53.329c-10.043,57.568-21.38,65.079-22.377,65.624c-5.142,0.121-9.273,4.326-9.273,9.497
		c0,5.246,4.254,9.5,9.5,9.5c15.016,0,22.944-18.106,25.548-24.055c5.446-12.436,10.289-29.987,14.396-52.164
		c5.916-31.946,9.926-71.363,11.735-114.247C420.568,291.106,439.276,269.301,439.276,243.2z M153.745,252.7h107.727
		c5.246,0,9.5-4.254,9.5-9.5s-4.254-9.5-9.5-9.5H153.745c-1.309-7.303-4.09-14.099-8.037-20.065
		c23.205-8.548,56.451-14.791,97.491-14.791s74.286,6.244,97.491,14.791c-3.947,5.967-6.729,12.762-8.037,20.066h-25.018
		c-5.246,0-9.5,4.254-9.5,9.5s4.254,9.5,9.5,9.5h25.018c1.309,7.303,4.091,14.099,8.037,20.066
		c-23.205,8.547-56.451,14.791-97.491,14.791s-74.286-6.244-97.491-14.791C149.655,266.799,152.437,260.003,153.745,252.7z
		 M243.2,65.163c52.478,0,98.041,39.84,120.284,97.825c-15.219-16.027-35.048-29.104-58.336-37.684
		c-4.924-1.814-10.385,0.707-12.199,5.63c-1.814,4.923,0.707,10.385,5.63,12.199c28.769,10.599,51.441,28.864,65.066,51.005
		c-2.974,1.332-5.809,2.92-8.469,4.749c-2.147-0.914-4.346-1.81-6.648-2.67c-28.284-10.559-65.69-16.375-105.329-16.375
		s-77.046,5.815-105.329,16.375c-2.303,0.86-4.501,1.756-6.648,2.67c-2.708-1.861-5.597-3.475-8.63-4.822
		c15.855-25.886,44.072-46.21,79.718-55.466c5.078-1.318,8.126-6.503,6.808-11.582c-1.319-5.079-6.501-8.127-11.583-6.808
		c-29.593,7.684-55.295,22.439-74.606,42.741C145.178,104.986,190.733,65.163,243.2,65.163z M66.124,243.2
		c0-19.156,15.584-34.74,34.739-34.74s34.739,15.584,34.739,34.74s-15.584,34.74-34.739,34.74S66.124,262.356,66.124,243.2z
		 M243.2,421.237c-52.428,0-97.955-39.763-120.222-97.658c7.154,7.48,15.366,14.351,24.555,20.467
		c1.618,1.078,3.446,1.593,5.255,1.593c3.072,0,6.087-1.488,7.917-4.237c2.907-4.368,1.723-10.265-2.645-13.172
		c-15.016-9.994-26.962-22.264-35.376-35.937c3-1.339,5.858-2.938,8.538-4.78c2.147,0.914,4.346,1.81,6.648,2.67
		c28.283,10.559,65.69,16.375,105.329,16.375s77.046-5.815,105.329-16.375c2.303-0.86,4.501-1.756,6.648-2.67
		c2.65,1.821,5.474,3.404,8.436,4.734c-16.548,26.81-46.274,47.806-83.151,56.449c-5.108,1.198-8.278,6.31-7.081,11.418
		c1.027,4.379,4.93,7.334,9.241,7.334c0.718,0,1.447-0.082,2.176-0.252c30.799-7.219,58.651-22.737,78.674-43.752
		C341.225,381.411,295.668,421.237,243.2,421.237z M385.536,277.94c-19.156,0-34.74-15.584-34.74-34.74s15.584-34.74,34.74-34.74
		s34.74,15.584,34.74,34.74S404.691,277.94,385.536,277.94z"/>
</g>
<g>
</g>
<g>
</g>
<g>
</g>
<g>
</g>
<g>
</g>
<g>
</g>
<g>
</g>
<g>
</g>
<g>
</g>
<g>
</g>
<g>
</g>
<g>
</g>
<g>
</g>
<g>
</g>
<g>
</g>
</svg>
